<?xml version="1.0" encoding="UTF-8"?>
<svg xmlns="http://www.w3.org/2000/svg" viewBox="0 0 60 60" width="60" height="60">
  <!-- Simplified version of original Authentica logo -->
  <rect width="60" height="60" rx="8" fill="#ffffff"/>
  
  <!-- Main design elements with solid colors instead of gradients -->
  <g transform="scale(0.113) translate(-265, -265)">
    <!-- Simplified version of the original paths with solid fills -->
    <path fill="#68af81" d="M412.4,34.3C355.19,9.43,291.97-.37,229.87,.01C165.94,.4,101.74,11.53,41.22,32.03c-7.84,2.66-15.73,5.35-23.4,8.47C16.12,41.19,0,49.01,0,49c2.21,15.74,4.94,35.15,8.31,59.08c24.88-10.01,57.83-23.16,62.37-24.84c88.13-32.69,182.52-33.69,273.4-12.97c28.24,6.44,63.7,15.78,79.76,41.99c5.84,9.54,13.92,28.59,10.44,40.38c7.9-26.77,13.44-53.83,16.46-80.71l2.25-20s-40.59-17.64-40.59-17.64Z"/>
    
    <path fill="#66f295" d="M529.7,107.69h0c.54-5.43,1.1-11.08,1.65-16.85c-12.48-6.42-30.27-15.42-53.78-26.94c-.77,12.04-1.72,25.07-2.82,37.19h0c-.89,7.4-2,14.82-3.32,22.24c-.25,1.38-.52,2.75-.78,4.12c-6.13,30.05-16.33,60.9-17.55,64.54c-23.19,64.73-61.38,123.08-108.99,173.63c-19.86,21.09-45.87,46.93-76.61,47.5c-11.19,.2-31.7-2.48-40.11-11.45c19.08,20.37,39.6,38.86,61.25,55.08l16.11,12.07s35.77-26.06,35.77-26.06c75.66-55.11,132.63-143.15,164.02-230.19c8.57-23.76,15.37-48.17,20.15-72.97c2.17-10.65,3.96-21.52,5-31.9c0,0,0,0,0,0Z"/>
    
    <path fill="#303030" d="M327.5,137.21c-22.18,43.36-47.05,85.13-76.69,123.72c-.34,.46-.69,.92-1.03,1.38c-2.97-2.04-5.96-4.06-8.95-6.07c-18.63-13.62-43.32-20.08-65.64-12.99c20.95,2.76,39.89,12.21,54.34,27.29c5.32,4.92,10.67,9.8,16.1,14.57c4.08,3.58,10.31,3.25,13.98-.78c32.28-34.02,58.3-75.97,70.8-121.55c4.2-15.06,7.07-30.51,7.82-46.14c-3.74,6.82-7.17,13.71-10.73,20.56Z"/>
  </g>
</svg>